<svg width="218" height="53" viewBox="0 0 218 53" fill="none" xmlns="http://www.w3.org/2000/svg">
<path fill-rule="evenodd" clip-rule="evenodd" d="M208.425 0.434958C208.009 0.554372 207.391 0.774027 207.052 0.923021C206.713 1.07256 206.181 1.26538 205.87 1.35193C204.122 1.8378 202.608 3.31842 202.325 4.81822C202.258 5.16934 202.161 5.5599 202.11 5.68534C202.058 5.81078 201.968 6.34485 201.909 6.87235L201.801 7.83095L202.107 8.32175C202.806 9.44633 202.787 10.1535 202.04 10.8442L201.77 11.0946L200.349 10.9784C198.398 10.819 196.245 10.8963 195.904 11.1384C195.069 11.7327 194.958 14.9854 195.736 16.1132C196.139 16.6983 197.285 16.8379 199.44 16.5646C201.037 16.3614 212.893 16.3192 214.058 16.5126C215.012 16.6709 216.062 16.518 216.677 16.1319C217.51 15.6082 217.634 13.5415 216.914 12.1868L216.512 11.4304L216.739 10.4975C216.863 9.98479 217.077 9.15491 217.215 8.65316C217.632 7.12269 217.388 5.30792 216.627 4.29455C216.485 4.10666 216.102 3.58354 215.775 3.13218C214.915 1.94571 214.446 1.65922 212.398 1.06763C211.826 0.902753 211.017 0.667212 210.601 0.545059C209.432 0.202155 209.266 0.193392 208.425 0.434958ZM22.0963 0.383467C21.732 0.422359 21.1786 0.519314 20.8665 0.599289C20.5544 0.678716 19.7247 0.851263 19.0221 0.98218C18.3202 1.1131 17.4263 1.2955 17.0359 1.38753C16.646 1.4801 16.011 1.62636 15.6257 1.71291C14.6728 1.92708 14.1615 2.15167 13.6604 2.57729C13.4277 2.77503 13.0174 3.0051 12.7484 3.08891C11.9942 3.32335 11.5124 3.62901 11.0198 4.18609C10.7202 4.52406 10.3746 4.78973 9.99493 4.97378C8.70614 5.59769 6.24375 8.02103 5.5951 9.30391C5.41066 9.66763 5.03157 10.1842 4.68994 10.5364C4.31993 10.9171 4.04015 11.3066 3.93403 11.5859C3.54529 12.6146 3.12307 13.479 2.80697 13.8948C2.25366 14.6222 1.98921 15.4723 1.66403 17.5725C1.58401 18.089 1.4166 19.0055 1.29232 19.608C0.936495 21.3368 0.86272 21.9388 0.859883 23.14C0.857045 24.504 1.16463 26.8928 1.52726 28.3263C1.67368 28.9037 1.86549 29.8283 1.95402 30.3805C2.1447 31.5746 2.32119 32.0402 2.88132 32.8301C3.11172 33.1549 3.43463 33.764 3.59807 34.1831C4.09179 35.4473 4.18827 35.6215 4.61162 36.0176C4.83522 36.2268 5.15415 36.6464 5.32043 36.9499C5.87318 37.9611 6.23013 38.4321 7.02634 39.2023C7.46047 39.623 7.96952 40.1516 8.15793 40.3773C8.39571 40.6627 8.78615 40.942 9.43424 41.2904C9.94783 41.5665 10.6544 42.0458 11.0045 42.3547C11.3978 42.7026 11.8132 42.9759 12.0924 43.0712C13.1128 43.4196 13.7677 43.7088 14.3221 44.0561C14.6445 44.2582 15.2369 44.5365 15.6398 44.6745C17.4405 45.2924 17.8769 46.0111 18.079 48.6853C18.3616 52.437 18.7112 52.6769 23.9878 52.7421C25.1324 52.7563 26.3537 52.7996 26.7016 52.8385C27.9886 52.982 32.7176 52.4173 33.1824 52.0645C34.0036 51.4411 33.9627 51.0939 32.9702 50.2771C32.6688 50.0295 32.2852 49.6209 32.1183 49.37C31.7608 48.8332 31.4141 48.4848 30.8903 48.1364C30.4323 47.8319 30.35 47.6856 30.0543 46.6492L29.8251 45.8457L30.0555 45.5816C30.4357 45.1451 30.8625 44.9534 31.8942 44.7534C32.4344 44.6488 32.9191 44.5316 32.9719 44.4927C33.0246 44.4538 33.3078 44.2363 33.6007 44.009C33.8935 43.7817 34.3407 43.5226 34.5938 43.4333C36.4841 42.7639 36.538 42.7371 37.2315 42.1159C37.6072 41.7801 38.0584 41.4493 38.2343 41.3819C38.7609 41.1787 39.0674 40.9311 39.4958 40.363C39.7194 40.0661 40.1314 39.6696 40.4107 39.4817C40.7551 39.25 41.0094 38.9816 41.2023 38.6463C41.3584 38.3746 41.7897 37.8416 42.1614 37.462C42.6818 36.9296 42.9559 36.5412 43.3565 35.7672C43.6426 35.2145 43.966 34.6848 44.075 34.5901C44.5364 34.1886 44.8389 33.5581 45.1771 32.296C45.3649 31.5943 45.7037 30.6292 45.9296 30.1526C46.6509 28.6292 46.8575 27.0982 46.8444 23.3608C46.8308 19.5735 46.6889 18.4736 46.0221 17.0105C45.8428 16.6155 45.5443 15.7654 45.3592 15.1201C44.7588 13.0255 44.6607 12.7746 44.2163 12.2093C43.9819 11.9097 43.5421 11.1926 43.2396 10.6153C42.7924 9.76075 42.5978 9.49015 42.1937 9.16203C41.9213 8.94019 41.5161 8.48828 41.2943 8.15797C40.8567 7.50777 40.6575 7.31221 40.0509 6.93918C39.8335 6.80553 39.472 6.47303 39.2467 6.19969C39.022 5.9269 38.5839 5.54511 38.274 5.35174C37.9642 5.15893 37.3967 4.71962 37.013 4.37671C36.5046 3.92152 36.0937 3.65366 35.4955 3.38634C34.31 2.8572 34.1398 2.76572 33.8248 2.49184C33.1518 1.90682 32.9872 1.84985 30.6321 1.38972C29.3705 1.14323 28.0619 0.862219 27.7242 0.764716C26.4553 0.399901 23.6961 0.21311 22.0963 0.383467ZM157.682 1.16568C156.394 1.8734 156.158 2.15989 155.893 3.32828C155.567 4.77001 155.235 5.72204 154.836 6.36019C154.367 7.11173 154.265 7.37302 153.803 9.01742C153.34 10.6695 153.234 10.9461 152.767 11.7108C152.34 12.4098 152.184 12.8666 151.907 14.2212C151.701 15.2275 151.507 15.7183 151.111 16.2299C150.726 16.7262 150.497 17.2603 150.256 18.2117C149.8 20.0145 149.627 20.5239 149.316 20.9818C148.756 21.8068 148.592 22.2094 148.32 23.4287C148.005 24.842 147.803 25.3875 147.287 26.2114C146.823 26.9547 146.681 27.3283 146.327 28.7492C146.021 29.9779 145.806 30.5212 145.4 31.0926C145.045 31.5927 144.794 32.2927 144.428 33.804C144.102 35.1494 143.97 35.478 143.408 36.3435C143.112 36.8003 142.973 37.1728 142.738 38.1402C142.381 39.6049 142.209 40.059 141.589 41.1683C141.195 41.8738 141.094 42.1559 140.982 42.8625C140.787 44.1021 140.793 44.1388 141.247 44.6148L141.65 45.0355L142.832 45.1374C144.303 45.2645 150.948 45.1851 152.101 45.0262C153.583 44.8224 153.788 44.5168 154.567 41.355C154.776 40.5044 154.81 40.4403 155.265 40.0256C156.531 38.8709 157.193 38.7548 162.222 38.809C164.224 38.8304 166.279 38.8413 166.787 38.8331C169.902 38.7844 170.812 39.3124 171.022 41.2904C171.196 42.9266 171.914 44.1591 173.083 44.8257C173.586 45.1128 175.674 45.2256 180.382 45.219C184.464 45.2135 185.191 45.0722 185.692 44.1843C185.891 43.8304 185.433 42.0688 184.88 41.062C184.335 40.0727 184.013 39.1848 183.695 37.8044C183.543 37.1416 183.399 36.7823 183.12 36.366C182.53 35.4829 182.41 35.2047 182.039 33.85C181.848 33.1467 181.571 32.3459 181.425 32.0698C181.28 31.7932 181.007 31.2799 180.819 30.9282C180.631 30.5771 180.37 29.8946 180.239 29.412C180.016 28.5936 179.822 28.0919 178.916 26.0087C178.722 25.5623 178.395 24.6376 178.189 23.9546C177.983 23.271 177.705 22.5271 177.571 22.3009C176.9 21.1746 176.772 20.8783 176.414 19.6162C176.201 18.8674 175.901 18.0463 175.749 17.7905C175.082 16.6763 174.787 15.9807 174.479 14.7997C174.119 13.4188 174.067 13.2955 173.602 12.7406C173.148 12.1978 172.947 11.7097 172.672 10.4838C172.426 9.38552 172.14 8.71779 171.673 8.15359C171.526 7.97611 171.294 7.48148 171.157 7.05476C171.021 6.62805 170.784 5.89239 170.63 5.42021C170.466 4.91407 170.16 4.2573 169.884 3.82237C169.626 3.41592 169.352 2.90705 169.273 2.69122C168.747 1.23854 167.559 0.751569 165.2 1.01998C163.135 1.25497 160.096 1.11474 158.754 0.721989C158.645 0.690218 158.245 0.855098 157.682 1.16568ZM69.4354 1.08352C68.0854 1.56884 67.8691 1.8367 67.5598 3.40826C67.3306 4.57501 67.1053 5.16112 66.6013 5.90828C66.1224 6.61819 65.8948 7.23334 65.6065 8.59564C65.333 9.89112 65.2881 10.0072 64.7621 10.7845C64.3359 11.415 64.1304 11.9814 63.7638 13.5365C63.6225 14.1385 63.3757 14.7679 62.9586 15.5907C62.378 16.7366 62.2668 17.0384 61.7299 18.9233C61.5818 19.4442 61.3162 20.0692 61.0654 20.4888C60.5858 21.2897 60.3634 21.8824 60.0303 23.2447C59.7539 24.3731 59.6251 24.6935 59.1268 25.4965C58.7681 26.075 58.687 26.3083 58.0764 28.5274C57.88 29.2416 57.649 29.8217 57.3795 30.2786C56.8352 31.1999 56.7098 31.5237 56.2785 33.1193C56.0748 33.8725 55.7808 34.7254 55.6253 35.0141C55.4698 35.3027 55.2156 35.7749 55.0601 36.0636C54.8859 36.3884 54.6725 37.0594 54.5011 37.8214C54.1975 39.1749 53.9841 39.7649 53.5579 40.4359C53.1147 41.1337 52.8888 41.7823 52.6834 42.9507C52.4695 44.1678 52.4956 44.2769 53.1465 44.8783L53.4234 45.1336L55.778 45.1927C59.5564 45.288 62.4773 45.2103 63.9261 44.9758C65.1099 44.7841 65.3188 44.5611 65.741 43.0416C66.4719 40.4118 66.5412 40.2935 67.9713 39.2259L68.4469 38.8709L74.1196 38.8786C80.1271 38.8862 81.4205 38.9547 81.8591 39.2878C82.3109 39.6307 82.6485 40.4447 82.7155 41.3529C82.8466 43.1315 83.5276 44.2171 84.9412 44.9024L85.4367 45.1423L89.6021 45.1829C97.151 45.2563 97.7724 45.0837 97.2424 43.0624C97.1385 42.6653 96.9064 42.0682 96.7271 41.7352C96.3588 41.0516 95.9286 39.8465 95.5802 38.5231C95.289 37.4149 95.1125 36.9729 94.7607 36.4717C94.3396 35.8713 94.1501 35.3926 93.8459 34.1606C93.5196 32.84 93.4021 32.5463 92.8953 31.7893C92.4385 31.1074 92.203 30.5163 91.9028 29.2997C91.5974 28.0612 91.4561 27.7019 91.0674 27.1738C90.5708 26.4995 90.4789 26.2793 90.1583 25.0041C89.8331 23.7114 89.6458 23.2414 89.2128 22.6339C88.8173 22.079 88.5772 21.4551 88.2532 20.1394C87.9138 18.7601 87.8474 18.6045 87.205 17.6908C86.73 17.0149 86.6681 16.8642 86.3844 15.6821C86.1614 14.752 85.9877 14.2552 85.7477 13.8564C85.0303 12.6672 84.7602 12.0203 84.4838 10.8311C84.1989 9.60573 83.9963 9.10726 83.5928 8.64165C83.2257 8.21768 83.0038 7.72249 82.6258 6.48015C82.4153 5.78832 82.1435 5.11839 81.959 4.83684C81.4256 4.02231 81.2843 3.74185 81.0323 2.99743C80.4603 1.30701 79.3253 0.769098 76.8703 1.02381C74.9737 1.22101 72.5669 1.13829 70.6175 0.808537C70.4274 0.776219 70.0381 0.867149 69.4354 1.08352ZM105.316 1.93366C104.98 2.10456 104.656 2.33024 104.595 2.43541C104.395 2.7827 104.479 11.0162 104.716 14.2212C104.812 15.5184 104.82 18.2013 104.755 26.9569C104.622 44.8849 104.602 43.8863 105.109 44.4439C105.74 45.1369 105.255 45.0941 113.227 45.1648C117.155 45.1998 121.879 45.2502 123.726 45.2771C135.353 45.4447 134.174 45.4732 134.767 45.0131C135.698 44.29 135.797 44.0134 136.259 40.8796C136.711 37.8028 136.699 36.0745 136.219 35.0228C135.931 34.3934 133.242 34.3151 127.462 34.7676C118.808 35.4446 117.682 35.3542 116.99 33.9267L116.701 33.3302L116.759 25.1909C116.824 16.1899 116.886 14.3889 117.233 11.5739C117.549 8.99825 117.798 5.48814 117.784 3.81799C117.764 1.57542 118.32 1.714 109.08 1.64608L105.926 1.62252L105.316 1.93366ZM210.268 6.24406C211.705 6.59244 212.158 7.16103 212.258 8.74354C212.34 10.0489 211.919 10.5578 210.483 10.8892C210.071 10.9839 209.625 11.1094 209.493 11.168C209.286 11.2589 209.191 11.2408 208.838 11.0453C208.611 10.9193 208.159 10.7243 207.834 10.612C206.871 10.2795 206.617 9.93494 206.533 8.84816C206.431 7.54009 206.759 6.99013 207.837 6.66256C208.11 6.5793 208.524 6.39032 208.757 6.24242C208.991 6.09452 209.225 5.98552 209.276 5.99976C209.329 6.01455 209.775 6.12465 210.268 6.24406ZM26.3111 12.304C27.8178 12.4947 28.4097 12.7357 29.5277 13.6132C29.8052 13.8312 30.3114 14.1451 30.6519 14.3111C31.3953 14.6726 31.4674 14.7476 31.9663 15.6821C32.1808 16.0837 32.5508 16.6386 32.7891 16.9146C33.5955 17.8491 33.7635 18.289 34.0756 20.2851C34.4377 22.5977 34.5654 24.0356 34.4485 24.4739C34.3986 24.6596 34.247 25.4894 34.1108 26.3182C33.734 28.6172 33.49 29.2493 32.6484 30.1066C32.3527 30.4079 32.0134 30.8505 31.8942 31.0904C31.6082 31.6655 31.2416 32.0068 30.6077 32.2867C30.3222 32.4127 29.8648 32.7189 29.5918 32.9665C28.5124 33.9459 27.5806 34.1946 24.2715 34.3874C22.9867 34.4625 19.8791 34.0368 19.0568 33.6731C17.4224 32.9512 15.4446 31.0383 14.7687 29.527C14.5747 29.0927 14.2642 28.5175 14.0787 28.2485C13.3897 27.2505 13.2995 26.6732 13.3063 23.3055L13.312 20.3382L13.5724 19.5165C13.716 19.0646 13.9918 18.4484 14.1853 18.1471C14.3789 17.8458 14.6184 17.4147 14.7177 17.1885C15.4304 15.5611 17.7237 13.4549 19.4954 12.8003C21.0027 12.2432 24.0667 12.0203 26.3111 12.304ZM75.1252 18.2068C76.0286 19.0789 76.4844 20.0692 76.7596 21.7536C76.8561 22.3447 77.1347 23.3411 77.4871 24.3544C78.1278 26.196 78.125 26.1046 77.5705 27.2872C77.3339 27.7928 77.2584 27.8695 76.7732 28.0985L76.2375 28.3515L74.2314 28.3345C71.5443 28.3121 71.4461 28.2584 71.2514 26.7022C71.0954 25.4544 71.4966 23.8269 72.2695 22.5747C72.6963 21.8835 72.946 21.1401 73.2252 19.7335C73.4471 18.6122 73.5969 18.2008 73.9436 17.7571L74.1769 17.4586L74.4771 17.6645C74.6417 17.7779 74.9334 18.0222 75.1252 18.2068ZM163.735 18.4467C164.554 19.1386 164.737 19.6168 165.296 22.5293C165.505 23.6226 165.616 23.9617 166.064 24.8732L166.586 25.9386L166.381 26.6534C166.141 27.4921 166.002 27.7282 165.645 27.9067C165.149 28.1543 164.12 28.432 163.924 28.3718C163.816 28.3389 162.996 28.3132 162.102 28.3143C159.856 28.317 159.752 28.2535 159.56 26.7592C159.39 25.439 159.914 23.2704 160.572 22.5693C160.855 22.2674 161.189 21.2568 161.412 20.0298C161.651 18.7146 161.793 18.2808 162.132 17.8206L162.331 17.5506L162.784 17.7878C163.033 17.9187 163.461 18.215 163.735 18.4467ZM203.305 21.3105C202.86 21.7673 202.658 22.2466 202.478 23.2644L202.317 24.1824L202.659 25.0446L203.002 25.9074L202.672 26.9569C201.908 29.3939 202.008 31.7619 202.953 33.551C203.167 33.958 204.808 35.4808 205.214 35.65C206.641 36.2444 207.511 36.4755 209.291 36.7324L211.128 36.9975L211.629 36.7242C211.906 36.5736 212.426 36.3539 212.785 36.2356C214.452 35.6867 214.96 35.3882 215.507 34.635C215.785 34.2532 216.214 33.7153 216.462 33.4392C217.872 31.8699 217.971 29.7034 216.707 28.0985L216.42 27.7331L216.571 26.82C216.655 26.3133 216.82 25.7217 216.941 25.49C217.512 24.4032 217.654 22.583 217.219 21.9475C216.688 21.1735 216.025 21.0881 210.842 21.1221C208.577 21.1374 206.021 21.1171 205.162 21.0771L203.601 21.0043L203.305 21.3105ZM210.304 26.4683C211.774 26.7241 212.168 27.1678 212.237 28.6446C212.302 30.0562 211.876 30.6697 210.327 31.3977C209.277 31.8907 209.17 31.8912 208.601 31.3977C208.349 31.1791 207.896 30.8483 207.595 30.6626C206.64 30.0748 206.51 29.813 206.61 28.6818C206.72 27.4165 206.862 27.2368 208.151 26.7164C209.257 26.2705 209.202 26.2771 210.304 26.4683ZM197.335 40.053C196.422 40.3778 196.115 40.621 195.772 41.2877C195.357 42.0923 195.273 43.8019 195.609 44.5573C196.122 45.7065 195.683 45.6638 206.387 45.6107L215.225 45.5669L215.945 45.3472C217.107 44.9928 217.452 44.4582 217.456 43.0049C217.459 41.6295 217.099 40.9398 216.131 40.4677C215.192 40.0092 214.926 39.978 213.812 40.196C213.269 40.3017 212.789 40.3674 212.745 40.3417C212.465 40.1741 209.397 40.1072 208.372 40.2464C207.206 40.4047 206.566 40.391 203.176 40.1374C202.162 40.0618 201.05 40.0267 200.706 40.0596C200.361 40.0924 199.744 40.0744 199.334 40.0196C198.924 39.9643 198.44 39.9018 198.258 39.8805C198.056 39.8569 197.696 39.9243 197.335 40.053Z" fill="white"/>
</svg>
